<svg width="52" height="42" viewBox="0 0 52 42" fill="none" xmlns="http://www.w3.org/2000/svg">
<path d="M33.2601 14.0234C33.0412 12.9062 32.6582 11.8276 32.1237 10.8224C31.6911 10.0151 31.0997 9.30357 30.3851 8.73069C29.5611 10.6957 28.5816 12.8553 27.4467 15.2097C26.3118 17.564 25.0637 19.9425 23.7024 22.3451C23.9197 23.2205 24.1461 24.0913 24.3815 24.9576C24.617 25.8223 24.8343 26.7007 25.0244 27.5926C25.2146 28.4845 25.3866 29.4036 25.5315 30.3091C25.6769 31.2695 25.7736 32.2366 25.8213 33.2068C27.6066 32.4523 29.336 31.5717 30.9963 30.5717C32.7771 29.5009 34.5014 28.3388 36.1623 27.09C36.6694 25.611 37.2504 24.0898 37.9054 22.5262C38.5574 20.9642 39.2637 19.4203 39.9564 17.899C40.6491 16.3778 41.4007 14.9018 42.1387 13.4756C42.8767 12.0494 43.592 10.7183 44.2802 9.49132C43.2687 9.6402 42.2865 9.9457 41.369 10.3968C40.4009 10.8576 39.4893 11.4289 38.6525 12.0992C37.7844 12.7881 36.9811 13.5549 36.2528 14.3902C35.5251 15.2289 34.8521 16.1136 34.2381 17.0388C33.6531 17.9199 33.134 18.843 32.6851 19.8006C32.2841 20.653 31.9598 21.5393 31.7162 22.4493C31.4808 23.2733 31.3963 23.2733 31.4627 22.4493C31.6319 20.5698 32.1187 18.7327 32.9024 17.0162C34.4772 13.5113 37.1144 10.5905 40.4408 8.6673C42.1569 7.66949 44.0338 6.9785 45.9871 6.62536C46.5576 5.71984 47.0692 4.923 47.5129 4.29367C47.8376 3.8096 48.2042 3.35508 48.6086 2.93539C48.7041 2.79814 48.8357 2.69001 48.9889 2.62299C49.1676 2.52192 49.3646 2.45729 49.5685 2.43284C49.6504 2.41872 49.7345 2.42494 49.8135 2.45099C49.8924 2.47705 49.9638 2.52212 50.0212 2.58223C50.1299 2.69995 50.1253 2.92633 50.0212 3.2659C49.7243 3.5993 49.4619 3.96184 49.2379 4.348C48.9029 4.88678 48.5135 5.56592 48.0789 6.38994C48.5364 6.42287 48.9842 6.53789 49.4009 6.72951C49.8119 6.92053 50.1753 7.20043 50.4649 7.549C50.7889 7.96007 51.0289 8.4308 51.1712 8.93444C51.3475 9.56586 51.4149 10.2227 51.3704 10.8768C51.288 12.2115 50.9369 13.5159 50.3381 14.7116C49.6392 16.1576 48.7861 17.5238 47.7937 18.7865C46.6706 20.2324 45.4434 21.5943 44.1218 22.8613C42.7133 24.2187 41.2337 25.5003 39.6893 26.7007C39.2365 28.2461 38.8547 29.7372 38.5438 31.1739C38.2505 32.4784 38.0522 33.8024 37.9507 35.1356C37.857 36.1934 37.9026 37.2589 38.0865 38.3049C38.2048 39.0986 38.5617 39.8376 39.1098 40.4238C39.1386 40.5094 39.1352 40.6027 39.1002 40.6861C39.0652 40.7694 39.001 40.8372 38.9196 40.8765C38.681 40.9938 38.4104 41.0288 38.1499 40.9761C37.7345 40.9106 37.3315 40.7823 36.9546 40.5958C36.4084 40.3308 35.9097 39.9774 35.4786 39.5499C35.0419 39.1309 34.7287 38.6 34.5731 38.0151C34.3676 37.2972 34.273 36.5521 34.2924 35.8056C34.3118 34.879 34.4057 33.9554 34.5731 33.0438C34.7497 32.0387 34.9851 30.9792 35.2885 29.8745C33.5006 31.0545 31.6355 32.1133 29.706 33.0438C28.0905 33.8402 26.3993 34.4727 24.6577 34.9318C24.5536 33.9222 24.4177 32.9759 24.2412 32.084C24.0646 31.192 23.8654 30.3454 23.648 29.5349C23.4307 28.7245 23.1953 27.9548 22.9146 27.2168C22.6339 26.4788 22.3803 25.7453 22.1087 25.0209C20.9013 26.9738 19.6457 28.8196 18.3417 30.5582C17.1407 32.1746 15.8081 33.689 14.3575 35.0858C13.1483 36.2682 11.7761 37.2714 10.2826 38.0649C9.04564 38.7432 7.63633 39.0424 6.23044 38.9251C5.40474 38.8868 4.59838 38.6623 3.87157 38.2686C3.26806 37.9364 2.72965 37.4977 2.28239 36.9738C1.8977 36.5141 1.59173 35.9939 1.37687 35.4344C1.19466 34.9914 1.07577 34.525 1.02372 34.0489C0.967326 33.7679 1.01224 33.476 1.15049 33.2249C1.26368 33.0755 1.43574 33.1253 1.65306 33.3788C2.56438 34.1716 3.66841 34.7103 4.85406 34.9409C5.95464 35.1254 7.08344 35.0431 8.14561 34.7009C9.34089 34.3071 10.4613 33.7147 11.4598 32.9487C12.6353 32.0658 13.7293 31.0794 14.7287 30.0013C15.8581 28.7851 16.9163 27.5047 17.898 26.1664C18.9303 24.7538 19.9264 23.2823 20.8862 21.752C20.4969 20.6971 20.1346 19.5878 19.786 18.4378C19.4163 17.1643 19.1141 15.8721 18.8805 14.5668C18.6835 13.5789 18.5984 12.5719 18.627 11.565C18.6554 10.6342 18.8438 9.71529 19.1839 8.84841C19.5239 7.99625 20.039 7.22501 20.6961 6.58462C21.4447 5.8741 22.3306 5.32406 23.2994 4.96827C24.3331 4.545 25.449 4.36082 26.5638 4.42949C27.6074 4.49929 28.6207 4.80919 29.5249 5.33501L30.9148 2.26079C31.0554 1.91283 31.2756 1.60269 31.5577 1.35527C31.7591 1.16616 32.0134 1.04295 32.2867 1.00211C32.3955 0.991976 32.5045 1.01857 32.5964 1.07766C32.6883 1.13674 32.7578 1.22493 32.7938 1.32811C32.8987 1.71265 32.8765 2.12083 32.7304 2.4917C32.5945 2.94446 32.3999 3.55115 32.1508 4.2665C31.9018 4.98186 31.594 5.7923 31.2453 6.70234C32.0399 7.62792 32.6362 8.70657 32.9975 9.87165C33.4217 11.2493 33.5755 12.696 33.4503 14.1321C33.4503 14.4671 33.4276 14.5849 33.3778 14.5351C33.2986 14.3763 33.2582 14.2009 33.2601 14.0234ZM28.3658 7.77538C27.3099 7.53987 26.2082 7.61857 25.1965 8.00176C24.7176 8.18375 24.2869 8.47343 23.9378 8.84841C23.5172 9.28322 23.1604 9.77561 22.8784 10.3108C22.5701 10.8892 22.3445 11.5079 22.2083 12.149C22.0667 12.808 22.0376 13.4861 22.1223 14.1547C22.1856 14.9289 22.2762 15.676 22.3849 16.4185C22.4935 17.161 22.6248 17.8538 22.7788 18.5601C23.8865 16.6434 24.9067 14.7645 25.8394 12.9232C26.7721 11.082 27.6142 9.36607 28.3658 7.77538ZM40.8483 23.1058C41.941 22.0644 42.9371 21.0186 43.8365 19.9682C44.6699 18.999 45.4267 17.9666 46.1003 16.8803C46.6735 15.9682 47.1428 14.9948 47.4994 13.9782C47.799 13.156 47.9149 12.2782 47.8389 11.4065C47.8014 10.9179 47.6325 10.4486 47.3499 10.0482C47.1328 9.77084 46.8251 9.57857 46.4807 9.50492C46.0279 10.4467 45.5525 11.4563 45.068 12.5429C44.5836 13.6295 44.0901 14.7478 43.6056 15.9069C43.1212 17.066 42.6367 18.2522 42.1659 19.4656C41.695 20.679 41.2694 21.8788 40.8483 23.1058Z" fill="#014225" stroke="#024225" stroke-miterlimit="10"/>
<path d="M51.1608 10.2608C51.0184 9.75713 50.7784 9.2864 50.4545 8.87533C50.165 8.51714 49.7982 8.22922 49.3814 8.03321C48.9657 7.83811 48.5175 7.72146 48.0594 7.68911C47.362 7.66084 46.6643 7.7387 45.9903 7.92002C44.0372 8.26686 42.16 8.95336 40.444 9.94836C37.1165 11.8683 34.4788 14.788 32.9056 18.2927C32.1219 20.0093 31.635 21.8464 31.4658 23.7258C31.3964 24.5498 31.4809 24.5498 31.7193 23.7258C31.963 22.8159 32.2872 21.9295 32.6882 21.0772C33.1371 20.1195 33.6562 19.1964 34.2412 18.3153C34.8542 17.3908 35.5272 16.5075 36.256 15.6712C36.983 14.8334 37.7864 14.0649 38.6556 13.3757C39.522 12.7481 40.4295 12.1793 41.3722 11.6734C50.5224 6.17689 49.8025 17.7358 40.856 24.4049C38.3523 26.8815 32.7607 30.8115 30.9995 31.8709C29.3409 32.8752 27.6131 33.7603 25.829 34.5196C25.7815 33.5479 25.6848 32.5792 25.5392 31.6174C25.3943 30.6937 25.2253 29.7882 25.0321 28.9008C24.8419 27.9953 24.6246 27.1305 24.3892 26.2658C24.1538 25.401 23.9364 24.5272 23.7101 23.6534C22.3065 19.5106 21.5096 14.1047 23.0807 11.3021C23.9138 9.81706 26.4945 7.60308 30.3928 10.0389C31.1074 10.6118 31.6988 11.3233 32.1314 12.1307C32.6659 13.1358 33.0489 14.2145 33.2678 15.3317C33.2735 15.4991 33.3169 15.6631 33.3945 15.8116C33.4443 15.8795 33.467 15.7437 33.467 15.4086C33.5922 13.9726 33.4384 12.5259 33.0142 11.1482C32.6529 9.9831 32.0566 8.90446 31.2621 7.97888C30.7598 7.43676 30.1819 6.97012 29.5461 6.59344C28.642 6.06762 27.6286 5.75773 26.5851 5.68792C25.4698 5.61862 24.3534 5.80441 23.3207 6.23121C22.334 6.58221 21.4318 7.1359 20.6721 7.85662C20.016 8.49778 19.5009 9.26882 19.1598 10.1204C18.8198 10.9873 18.6314 11.9062 18.6029 12.837C18.5746 13.8424 18.6596 14.8478 18.8565 15.8342C19.09 17.1396 19.3923 18.4318 19.762 19.7053C20.1106 20.8598 20.4728 21.9691 20.8622 23.024C21.6409 25.1746 21.4734 24.7128 22.1118 26.3156C22.3835 27.0355 22.6506 27.7689 22.9177 28.5069C23.1849 29.2449 23.4339 30.0191 23.6512 30.8296C23.8685 31.64 24.0677 32.4821 24.2443 33.3741C24.4209 34.266 24.5567 35.2168 24.6608 36.2219C26.3957 35.7599 28.0806 35.1275 29.691 34.3339C31.6205 33.4033 33.4855 32.3445 35.2735 31.1646C36.8334 30.2372 38.3104 29.1768 39.6879 27.9953C41.2287 26.7875 42.7052 25.4999 44.1113 24.1378C45.4318 22.8697 46.6589 21.5079 47.7832 20.063C48.7757 18.8003 49.6288 17.4341 50.3277 15.9882C50.9225 14.8113 51.2765 13.5275 51.3691 12.2122C51.4116 11.5546 51.3412 10.8946 51.1608 10.2608Z" fill="#FCB017" stroke="#FBB019" stroke-miterlimit="10"/>
</svg>
