<svg width="95" height="94" viewBox="0 0 95 94" fill="none" xmlns="http://www.w3.org/2000/svg">
<circle cx="47.5" cy="47" r="47" fill="#FFB000" fill-opacity="0.1"/>
<g clip-path="url(#clip0_1_913)">
<path d="M32.2462 54.6999C25.918 48.3715 25.9182 38.0745 32.2462 31.7462C38.5746 25.4179 48.8715 25.4179 55.1997 31.7462C60.5684 37.1149 61.3815 45.0996 57.6411 51.3347C57.6411 51.3347 57.3725 51.7855 57.7353 52.1481C59.8054 54.2181 66.0161 60.4289 66.0161 60.4289C67.6643 62.077 68.0567 64.3816 66.5951 65.8435L66.3434 66.0949C64.8818 67.5568 62.577 67.1645 60.9289 65.5163C60.9289 65.5163 54.7314 59.3186 52.6655 57.2529C52.2853 56.8727 51.8347 57.1413 51.8347 57.1413C45.5996 60.8815 37.615 60.0686 32.2462 54.6999ZM52.2032 51.7033C56.8792 47.0273 56.8791 39.419 52.2031 34.743C47.5271 30.0672 39.9188 30.067 35.243 34.743C30.567 39.4189 30.567 47.0273 35.243 51.7033C39.9189 56.379 47.5271 56.379 52.2032 51.7033Z" fill="#FFB000"/>
<path d="M51.1688 42.2598C51.3864 42.2598 51.6077 42.217 51.8209 42.127C52.6728 41.7664 53.0714 40.7835 52.7108 39.9315C50.4447 34.5763 44.2445 32.0632 38.8894 34.3293C38.0376 34.6898 37.639 35.6728 37.9995 36.5248C38.3602 37.3768 39.3429 37.7751 40.1951 37.4146C43.8488 35.8686 48.0794 37.5833 49.6253 41.237C49.8958 41.876 50.5161 42.2598 51.1688 42.2598Z" fill="#FFB000"/>
</g>
<defs>
<clipPath id="clip0_1_913">
<rect width="40" height="40" fill="white" transform="matrix(-1 0 0 1 67.5 27)"/>
</clipPath>
</defs>
</svg>
