<svg width="95" height="94" viewBox="0 0 95 94" fill="none" xmlns="http://www.w3.org/2000/svg">
<circle cx="47.5" cy="47" r="47" fill="#FFB000" fill-opacity="0.1"/>
<g clip-path="url(#clip0_1_896)">
<path d="M62.5623 57.1249C61.6248 57.1249 60.7477 57.3876 60.0003 57.8432L57.102 54.9454C60.892 50.5761 60.8914 43.4235 57.1022 39.055L60.0003 36.157C63.2116 38.163 67.5374 35.7484 67.4998 31.9377C67.4998 29.2152 65.2849 27.0003 62.5623 27.0003C58.7518 26.9631 56.3368 31.2884 58.3431 34.4998L55.445 37.3977C51.0757 33.608 43.9234 33.6088 39.555 37.3977L36.6569 34.4997C38.6629 31.2884 36.2483 26.9627 32.4376 27.0002C29.7151 27.0002 27.5002 29.2151 27.5002 31.9377C27.4631 35.7483 31.7883 38.1632 34.9997 36.1569L37.8978 39.0549C34.1079 43.4243 34.1088 50.5769 37.898 54.9453L34.9998 57.8431C31.7885 55.837 27.4627 58.2516 27.5002 62.0623C27.5002 64.7848 29.7151 66.9997 32.4377 66.9997C36.2483 67.0369 38.6632 62.7117 36.657 59.5003L39.5553 56.6025C43.9245 60.3919 51.0765 60.3912 55.4448 56.6025L58.3431 59.5003C56.3372 62.712 58.7518 67.0371 62.5624 66.9997C69.1123 66.7288 69.1109 57.3952 62.5623 57.1249ZM62.5623 29.344C63.9926 29.344 65.1561 30.5075 65.1561 31.9377C65.0136 35.3787 60.1106 35.3776 59.9686 31.9377C59.9686 30.5075 61.1321 29.344 62.5623 29.344ZM32.4377 34.5314C31.0075 34.5314 29.844 33.3678 29.844 31.9377C29.9865 28.4967 34.8895 28.4977 35.0314 31.9377C35.0315 33.3679 33.8679 34.5314 32.4377 34.5314ZM32.4377 64.6561C31.0075 64.6561 29.844 63.4925 29.844 62.0623C29.9865 58.6214 34.8895 58.6224 35.0314 62.0623C35.0315 63.4925 33.8679 64.6561 32.4377 64.6561ZM52.6041 55.7442C49.5362 57.5784 45.4638 57.5784 42.3959 55.7442V54.5312C42.6771 47.7582 52.3254 47.7634 52.6041 54.5312V55.7442ZM44.9063 44.4896C44.9063 43.0594 46.0699 41.8959 47.5 41.8959C50.941 42.0384 50.9399 46.9413 47.5 47.0833C46.0699 47.0833 44.9063 45.9198 44.9063 44.4896ZM54.9192 53.8819C54.6966 51.3175 53.1681 49.1224 51.0051 47.9632C54.0718 44.9107 51.8744 39.542 47.5 39.5523C43.1258 39.542 40.9281 44.9115 43.995 47.9632C41.832 49.1224 40.3035 51.3175 40.081 53.8819C34.1067 47.537 38.695 36.8473 47.5002 36.8752C56.305 36.8472 60.8938 47.5388 54.9192 53.8819ZM62.5623 64.6561C61.1321 64.6561 59.9686 63.4925 59.9686 62.0623C60.1111 58.6214 65.0141 58.6224 65.1561 62.0623C65.1561 63.4925 63.9926 64.6561 62.5623 64.6561Z" fill="#FFB000"/>
</g>
<defs>
<clipPath id="clip0_1_896">
<rect width="40" height="40" fill="white" transform="translate(27.5 27)"/>
</clipPath>
</defs>
</svg>
