<svg width="95" height="94" viewBox="0 0 95 94" fill="none" xmlns="http://www.w3.org/2000/svg">
<circle cx="47.5" cy="47" r="47" fill="#FFB000" fill-opacity="0.1"/>
<g clip-path="url(#clip0_1_926)">
<path d="M47.4361 41.9033C44.4799 41.9033 42.0742 44.3083 42.0742 47.2644C42.0742 50.2205 44.4799 52.6254 47.4361 52.6254C50.3922 52.6254 52.7971 50.2205 52.7971 47.2644C52.7971 44.3083 50.3922 41.9033 47.4361 41.9033ZM47.4361 50.2427C45.7936 50.2427 44.4569 48.9068 44.4569 47.2644C44.4569 45.6219 45.7936 44.286 47.4361 44.286C49.0777 44.286 50.4144 45.6219 50.4144 47.2644C50.4144 48.9068 49.0777 50.2427 47.4361 50.2427Z" fill="#FFB000"/>
<path d="M58.5051 41.12C56.5012 41.12 54.8707 42.7506 54.8707 44.7553V47.1538C54.8707 51.2187 51.5643 54.5251 47.5002 54.5251C43.4354 54.5251 40.1282 51.2187 40.1282 47.1538V44.7553C40.1282 42.7506 38.4976 41.12 36.493 41.12C34.4891 41.12 32.8594 42.7506 32.8594 44.7553V47.1094C32.8594 51.6222 34.9577 55.8944 38.504 58.6607V65.8087C38.504 66.4664 39.0369 67.0001 39.6953 67.0001H55.1661C55.8238 67.0001 56.3575 66.4664 56.3575 65.8087V58.7298C59.9895 55.9325 62.1395 51.5809 62.1395 46.964V44.7553C62.1395 42.7506 60.5097 41.12 58.5051 41.12ZM53.9748 58.1277V64.6174H40.8867V58.0634C40.8867 57.679 40.7 57.3176 40.3871 57.0936C37.1649 54.7943 35.2421 51.0623 35.2421 47.1094V44.7553C35.2421 44.0643 35.8028 43.5027 36.493 43.5027C37.184 43.5027 37.7455 44.0642 37.7455 44.7553V47.1538C37.7455 52.5324 42.1209 56.9078 47.5002 56.9078C52.878 56.9078 57.2534 52.5324 57.2534 47.1538V44.7553C57.2534 44.0643 57.8149 43.5027 58.5059 43.5027C59.1961 43.5027 59.7568 44.0642 59.7568 44.7553V46.964C59.7568 51.017 57.7839 54.8261 54.4799 57.154C54.163 57.3772 53.9748 57.7401 53.9748 58.1277Z" fill="#FFB000"/>
<path d="M42.8041 35.9456L42.6206 39.4783C42.5763 40.348 43.4488 40.9663 44.2504 40.6467L47.498 39.356L50.7456 40.6467C51.5485 40.9651 52.4197 40.3487 52.3753 39.4783L52.1919 35.9456L54.384 33.2826C54.9297 32.6219 54.6167 31.6118 53.7867 31.3788L50.3993 30.4265L48.4923 27.5347C48.023 26.8215 46.9725 26.822 46.5036 27.5347L44.5966 30.4265L41.2093 31.3788C40.3779 31.6122 40.0672 32.6231 40.612 33.2826L42.8041 35.9456ZM46.3416 32.1096L47.498 30.3551L48.6544 32.1096C48.8124 32.3486 49.0507 32.5233 49.3271 32.6004L51.3841 33.1786L50.0586 34.7885C49.8695 35.018 49.7734 35.3095 49.7885 35.6073L49.8997 37.747L47.938 36.9671C47.6567 36.8548 47.3394 36.8548 47.058 36.9671L45.0962 37.747L45.2074 35.6073C45.2225 35.3095 45.1264 35.018 44.9374 34.7885L43.6118 33.1786L45.6689 32.6004C45.9452 32.5233 46.1835 32.3485 46.3416 32.1096Z" fill="#FFB000"/>
<path d="M38.3408 38.551C38.8061 39.0162 39.5604 39.0162 40.0256 38.551C40.4909 38.0858 40.4909 37.3314 40.0256 36.8662L35.5455 32.386C35.0803 31.9208 34.3259 31.9208 33.8607 32.386C33.3954 32.8512 33.3954 33.6055 33.8607 34.0708L38.3408 38.551Z" fill="#FFB000"/>
<path d="M56.94 38.551L61.4202 34.0708C61.8854 33.6056 61.8854 32.8513 61.4202 32.386C60.955 31.9208 60.2006 31.9208 59.7354 32.386L55.2552 36.8662C54.7899 37.3314 54.7899 38.0857 55.2552 38.551C55.7205 39.0162 56.4747 39.0162 56.94 38.551Z" fill="#FFB000"/>
</g>
<defs>
<clipPath id="clip0_1_926">
<rect width="40" height="40" fill="white" transform="translate(27.5 27)"/>
</clipPath>
</defs>
</svg>
