<svg width="95" height="94" viewBox="0 0 95 94" fill="none" xmlns="http://www.w3.org/2000/svg">
<circle cx="47.5" cy="47" r="47" fill="#FFB000" fill-opacity="0.1"/>
<path d="M63.4116 33.477L48.0991 27.1194C47.7155 26.9602 47.2844 26.9601 46.9009 27.1194L31.5884 33.477C31.0052 33.7192 30.625 34.2886 30.625 34.9201V42.6486C30.625 53.2902 37.057 62.8626 46.9095 66.8841C47.288 67.0386 47.712 67.0386 48.0905 66.8841C57.9429 62.8627 64.375 53.2903 64.375 42.6486V34.9201C64.375 34.2886 63.9949 33.7192 63.4116 33.477ZM61.25 42.6486C61.25 51.6951 55.9375 60.023 47.5 63.7403C39.288 60.1223 33.75 51.9402 33.75 42.6486V35.9632L47.5 30.2543L61.25 35.9632V42.6486ZM45.773 47.9153L52.4889 41.1994C53.0991 40.5893 54.0884 40.5892 54.6986 41.1994C55.3088 41.8097 55.3087 42.799 54.6985 43.4091L46.8778 51.2298C46.2675 51.8401 45.2782 51.8399 44.6681 51.2298L40.3014 46.8631C39.6912 46.2529 39.6912 45.2636 40.3014 44.6534C40.9116 44.0433 41.9009 44.0432 42.5111 44.6534L45.773 47.9153Z" fill="#FFB000"/>
</svg>
