<svg width="95" height="94" viewBox="0 0 95 94" fill="none" xmlns="http://www.w3.org/2000/svg">
<circle cx="47.5" cy="47" r="47" fill="#FFB000" fill-opacity="0.1"/>
<g clip-path="url(#clip0_1_948)">
<path d="M32.1127 58.1984C30.7761 58.1984 29.4703 57.8573 28.2868 57.1927C27.6779 56.8792 27.4421 56.0946 27.8059 55.5045C29.0145 53.5732 29.4509 51.2125 28.8975 48.9923C28.324 46.6907 27.4941 44.7522 27.5 42.3156C27.5206 33.7672 34.6358 26.8371 43.1755 27.0029C51.4239 27.1691 58.2216 34.1028 58.2217 42.3533C58.2218 53.1286 46.9292 60.6937 36.9598 56.5328C35.5857 57.6113 33.8585 58.1984 32.1127 58.1984ZM30.4886 55.5675C32.3666 56.1508 34.4787 55.6849 35.9269 54.2848C36.2837 53.9397 36.8174 53.8529 37.2652 54.0671C45.8003 58.1479 55.8455 51.7516 55.8454 42.3533C55.8454 35.3402 50.1402 29.5198 43.1277 29.3786C35.9009 29.235 29.8936 35.088 29.8762 42.3214C29.8706 44.6357 30.7735 46.4853 31.267 48.6776C31.7869 50.9879 31.513 53.431 30.4886 55.5675Z" fill="#FFB000"/>
<path d="M62.8859 67.0001C61.1402 67.0001 59.4129 66.413 58.039 65.3346C52.7372 67.5473 46.4306 66.5396 42.0834 62.7854C41.5868 62.3565 41.532 61.6063 41.9608 61.1096C42.3897 60.6131 43.1398 60.558 43.6365 60.987C47.492 64.3167 53.1385 65.0657 57.7336 62.8689C58.1812 62.6546 58.7148 62.7416 59.0719 63.0866C60.52 64.4866 62.6322 64.9528 64.5102 64.3692C63.3017 61.8486 63.1343 58.9608 64.0708 56.2874C64.0792 56.2634 64.0884 56.2397 64.0983 56.2162C64.7822 54.6038 65.1269 52.8902 65.1226 51.1231C65.1151 48.0075 64.0787 45.1255 62.1253 42.7884C61.7045 42.2849 61.7715 41.5357 62.275 41.1149C62.7783 40.694 63.5277 40.7612 63.9485 41.2646C66.2292 43.9934 67.4901 47.4924 67.4988 51.1174C67.5039 53.1937 67.101 55.2087 66.3015 57.1072C65.4617 59.5382 65.848 62.141 67.1928 64.306C67.5568 64.8963 67.3208 65.6809 66.7117 65.9947C65.5285 66.6589 64.2223 67 62.8859 67.0001Z" fill="#FFB000"/>
<path d="M42.8604 44.2914C43.8986 44.2914 44.7403 43.4501 44.7403 42.4124C44.7403 41.3747 43.8986 40.5334 42.8604 40.5334C41.8221 40.5334 40.9804 41.3747 40.9804 42.4124C40.9804 43.4501 41.8221 44.2914 42.8604 44.2914Z" fill="#FFB000"/>
<path d="M35.9346 44.2914C36.9729 44.2914 37.8145 43.4501 37.8145 42.4124C37.8145 41.3747 36.9729 40.5334 35.9346 40.5334C34.8963 40.5334 34.0546 41.3747 34.0546 42.4124C34.0546 43.4501 34.8963 44.2914 35.9346 44.2914Z" fill="#FFB000"/>
<path d="M49.7861 44.2914C50.8244 44.2914 51.6661 43.4501 51.6661 42.4124C51.6661 41.3747 50.8244 40.5334 49.7861 40.5334C48.7479 40.5334 47.9062 41.3747 47.9062 42.4124C47.9062 43.4501 48.7479 44.2914 49.7861 44.2914Z" fill="#FFB000"/>
</g>
<defs>
<clipPath id="clip0_1_948">
<rect width="40" height="40" fill="white" transform="translate(27.5 27)"/>
</clipPath>
</defs>
</svg>
