<svg width="95" height="94" viewBox="0 0 95 94" fill="none" xmlns="http://www.w3.org/2000/svg">
<circle cx="47.5" cy="47" r="47" fill="#FFB000" fill-opacity="0.1"/>
<path d="M64.4723 32.9814C58.6517 32.9814 50.9933 31.0173 48.2635 27.3784C47.9004 26.9362 47.2476 26.8724 46.8054 27.2356C46.7532 27.2783 46.7053 27.3262 46.6626 27.3784C43.9325 31.017 36.2741 32.9814 30.4538 32.9814C29.9012 32.9814 29.4532 33.4294 29.4532 33.9821V46.9889C29.4532 57.9911 39.0073 64.6238 47.1884 66.9608C47.3679 67.013 47.5583 67.013 47.7377 66.9608C55.9189 64.6238 65.473 57.9911 65.473 46.9889V33.9821C65.473 33.4294 65.025 32.9814 64.4723 32.9814ZM63.4716 46.9889C63.4716 56.756 54.9124 62.7436 47.4631 64.9579C40.0138 62.7436 31.4542 56.756 31.4542 46.9889V34.965C37.2376 34.7694 44.0765 32.9051 47.4631 29.499C50.8499 32.9051 57.6886 34.7694 63.4719 34.9647V46.9889H63.4716Z" fill="#FFB000"/>
<path d="M43.4623 42.9869V44.988H42.4616C41.9089 44.988 41.4609 45.436 41.4609 45.9886V53.9928C41.4609 54.5454 41.9089 54.9934 42.4616 54.9934H52.4671C53.0197 54.9934 53.4677 54.5454 53.4677 53.9928V45.9886C53.4677 45.436 53.0197 44.988 52.4671 44.988H51.4664V42.9869C51.4664 40.7765 49.6747 38.9849 47.4643 38.9849C45.254 38.9849 43.4623 40.7765 43.4623 42.9869ZM51.4664 52.9924H43.4623V46.989H51.4664V52.9924ZM49.4654 42.9869V44.988H45.4633V42.9869C45.4633 41.8819 46.359 40.9859 47.4643 40.9859C48.5694 40.9859 49.4654 41.8819 49.4654 42.9869Z" fill="#FFB000"/>
</svg>
